<svg xmlns="http://www.w3.org/2000/svg" id="social" viewBox="0 0 300 300"><defs><style>.a,.d{fill:#aea5bb}.a,.b{fill-rule:evenodd}.b{fill:#fff}</style></defs><path class="a" d="M66.257 50.15c-4.314 4.014-13.653 217.442.544 224.6 30.409 15.326 116.683-29.36 117.939-36.455 1.337-7.548 13.189-188.207.565-211.829-.493-.921-2.941-2.726-3.5-3.146-10.948-8.174-102.29 14.494-115.548 26.83z"/><path class="a" d="M182.156 22.841c3.536 2.638 3.714 3.059 4.6 5.42 10.079 27.675 1.882 180.865-1.11 208.91a4.438 4.438 0 01-.427 1.968c-4.822 8.892-82.885 48.3-115.34 37.661a23.832 23.832 0 01-3.681-1.568c-14.516-9.632-4.547-219.194-.253-225.186l-.014-.005c12.374-12.064 104.725-35.785 116.225-27.2zm-10.206-.684c-18.5.08-51.45 7.955-70.1 13.5-8.133 2.422-29.113 9-35.387 14.713a12.173 12.173 0 00-.9 3.824c-2.756 18.6-4.624 73.7-5.134 94.292-.261 10.863-2.957 119.923 6.615 125.576.259.155 1.33.637 1.961.884 21.523 8.588 65.764-9.068 86.609-19.14 5.855-2.812 23.881-11.956 27.958-16.926a1.508 1.508 0 00.459-.96c1.518-10.783 12.442-180.679 1.514-209.411a12.913 12.913 0 00-.865-1.894 20.634 20.634 0 00-3.293-2.858c-2.107-1.486-6.866-1.6-9.437-1.6zM65.931 50.041l.014.005a.758.758 0 01.055-.067z"/><path class="b" d="M76.056 52.848c-4.054 4-11.338 214.187.512 223.836 12.167 9.906 109.635-29.26 110.815-36.331 1.306-7.816 11.327-203.085-2.761-214.245-10.283-8.145-96.109 14.446-108.566 26.74z"/><path class="a" d="M184.375 25.24a5.137 5.137 0 012.013 2.151c11.751 20.8 3.936 181.712 2.352 205.705-.521 7.877-.536 7.7-1.223 8.572-5.147 6.254-47.051 23.827-76.489 32.174-7.638 2.146-25.465 6.963-33 4.43a5.106 5.106 0 01-3.491-3.488c-7.758-19.174-4.447-131.115-3.714-151.915 2.646-73.333 5.207-70.039 4.9-70.119 11.588-12.038 95.996-34.761 108.652-27.51zm-9.008-.295c-17.534.08-48.778 8.054-66.383 13.621-7.545 2.4-27.008 8.913-32.712 14.492-3.893 4.175-10.408 208 .395 222.681 2.511 3.268 14.284 1.245 18.33.483 19.857-3.842 47.752-14.11 66.237-22.1 5.437-2.362 20.128-8.891 24.544-12.832.931-.865.859-.988.937-1.688 1.671-15.9 10.629-197.947-2.053-212.637-1.713-1.913-6.657-2.02-9.295-2.02zM75.726 52.75h.014l.049-.065z"/><path class="b" d="M146.992 45.911c12.215-2.53 22.268-3.362 25.046-.953 10.673 9.255 3.08 171.213 2.092 177.7-.894 5.865-74.74 38.349-83.958 30.133-8.978-8-3.459-182.333-.388-185.651 3.59-3.878 16.777-10.645 28.684-13.467 2-.475.852 4.953 2.51 5.633 5.207 2.133 25.274-6.1 26.1-7.565.375-.672.222-3.102-.086-5.83z"/><path class="a" d="M118.774 53.208c2.139.157 1.035 5.183 2.413 5.734 4.518 1.71 19.82-4.09 24.34-6.52 1.487-.806 1.172-.845 1.272-.845.388-.774.05-4.049-.028-4.877-.071-.709-.186-.978.16-1.084.07.333.029.138 0 0 5.69-1.193 18.127-3.584 23.693-1.827A3.974 3.974 0 01173 45.505c9.741 15.212 2.91 174.007 1.8 177.517-1.27 3.908-21.984 13.286-25.741 14.975-10.944 4.883-45.791 19.4-57.1 16.491-2.349-.64-3.024-1.684-3.719-3.791-7.029-21.536-2.413-168.09.674-182.611.244-1.155.321-1.257 1.542-2.308 5.337-4.482 15.96-8.991 22.809-11.134a49.271 49.271 0 015.509-1.436zm35.4-8.291a180.2 180.2 0 00-6.854 1.238 34 34 0 01.279 4.5c-.061 1.252-.248 1.43-1.167 2-4.369 2.645-19.532 8.366-24.862 7.245a1.823 1.823 0 01-1.5-.943c-.708-1.337-.546-4.262-1.172-4.819-.155-.135-.145-.108-1.577.26a89.321 89.321 0 00-15.109 5.574c-3.444 1.632-9.411 4.742-12.023 7.5-2.733 5.467-8.036 174.391.38 184.627.891 1.008 3.141 1.2 4.413 1.241 15.1.287 51.847-15.332 66.945-23.189 1.887-.989 10.693-5.637 11.478-7.6.765-3.8 9.091-170.741-2-177.586-3.413-2.054-13.32-.654-17.228-.048z"/><path class="b" d="M212.649 76.368c-.3-.361-.4-1.436-.609-1.849a42.804 42.804 0 01-1.688-3.684c-.419-1.055-1.691-3.193-.872-4.595a1.837 1.837 0 012.208-.517 4.081 4.081 0 011.456 1.289c.07.092.181.534.244.575.12.078-.091-.339.04-2.277.114-1.711-.052-3.738.467-5.388.127-.406.646-1.3 1.233-1.224.521.067.984.729 1.2 1.161a13.367 13.367 0 01.829 5.834c0 .071.037.327-.01.388a12.865 12.865 0 01.967-5.221c.288-.762.434-1.3 1.267-1.486 1.84-.4 1.963 2.281 1.727 3.458-.355 1.759-.513 3.433-.492 3.251a5.118 5.118 0 012.3-3.393c.5-.285 1.478-.583 1.82.089.623 1.227-.044 3.158-.49 4.31a17.665 17.665 0 01-4.305 7.26 7.468 7.468 0 01-2.2 2.06c-.383.166-5.092-.041-5.092-.041z"/><path class="a" d="M219.862 58.58c1.768.14 2.234 2.186 2.053 3.927 1.775-1.464 3.819-1.151 3.77 1.517a10.835 10.835 0 01-.949 3.611 14.184 14.184 0 01-2.457 4.674 41.58 41.58 0 01-3.119 3.612 3.871 3.871 0 01-1.348.907 50.338 50.338 0 01-5.226-.165.307.307 0 01-.173-.107c.278-.221.353-.28 0 0a6.67 6.67 0 01-.623-1.745c-.062-.172-.954-1.716-1.847-3.813-.375-.867-.609-1.2-.933-2.07-.478-1.351-.529-3 .746-3.671a2.726 2.726 0 012.534.1c.521.323.45.408.457.223.106-2.528-.108-5.249.866-6.676 1.02-1.531 2.777-1.244 3.7 1.42.155.458 0 .369.4-.5a2.16 2.16 0 012.149-1.244zM214.2 62.7c-.2 4.8-.163 3.493-.166 3.863 0 1.03.1 1.094-.108 1.408a.647.647 0 01-.692.236.781.781 0 01-.53-.58c-.088-.266-.095-.282-.1-.285-.594-.769-1.166-1.355-2.111-1.166a.844.844 0 00-.712.761c-.245 1.108.489 2.509.9 3.535 1.116 2.915 1.6 3.678 1.732 4.056.155.466.208 1.014.376 1.473 0 .009.023.058.028.066.787.015 3.938.06 4.721-.047a2.921 2.921 0 00.9-.676c.357-.366 1.739-2.073 1.919-2.3a18.247 18.247 0 002.819-4.817c.452-1.392 1.53-3.945.912-5.125h-.01c-.962-.16-2.551 1.657-2.727 2.98a.872.872 0 01-.156.461.742.742 0 01-.924.223.758.758 0 01-.352-.363c-.109-.318-.086-.511.227-2.641a7.82 7.82 0 00.267-2.313 1.97 1.97 0 00-.475-1.3.562.562 0 00-.41-.03.543.543 0 00-.449.337 13.928 13.928 0 00-.585 1.6 9.521 9.521 0 00-.592 3.411c-.014.547.074.986-.393 1.267a.76.76 0 01-1.135-.512c-.1-.6.316-3.272-.53-5.6-.313-.809-.639-1.129-.794-1.192-.698.475-.807 2.395-.85 3.27zm3.384 13.314zm0 0h.012zm0 0h.018-.015.013zm-3.547-8.723zm-.122-.04v-.008l.008.019-.008-.017zM224.1 63.1h-.007zm0 0h-.009zm0 0h-.007zm0 0h-.007zm0 0h-.008zm0 0l-.008-.006zm0 0l-.009-.007zm0 0l-.01-.008zm0 0zm0 0v-.008zm0 0l-.009-.008zm0 0l-.01-.011zm0 0l-.009-.009zm0 0l-.009-.011zm0 0l-.009-.011zm-9-3.686z"/><path class="b" d="M170.182 126.473c2.3-.343 4.405-2.188 6.561-3a46.284 46.284 0 0022.63-18.051c3.586-5.552 5.949-11.768 8.5-17.814a51 51 0 002.989-8.437c.233-1.023.4-3.57 1.123-4.326.59-.615 2.629-.15 3.411-.144.738.006 2.748-.354 3.306.15.942.85.487 3.006.471 4.075-.059 4.149-.378 8.322-.672 12.459-.576 8.087-1.034 16.929-3.489 24.7-2.918 9.238-9.85 17.61-17.154 23.6-3.88 3.183-8.144 5.441-12.421 8.033-.616.373-3.739 2.6-4.4 2.333-1.312-.529-2.344-5.093-2.862-6.319-2.438-5.765-7.993-17.259-7.993-17.259z"/><path class="a" d="M170.136 126.171c2.161-.35 4.061-2.036 6.371-3.007 11.794-4.617 19.963-12.492 25.4-23.549 2.058-4.185 6.608-15.231 7.432-17.717 1.264-3.861.917-4.68 1.5-6.436.691-2.071 2.029-1.724 4.361-1.511.671.05 1.732-.187 2.818-.087a1.878 1.878 0 011.783 1.359 8.817 8.817 0 01.125 3.475c-.037.628.009 1.314-.148 4.547-.128 2.636-.914 14.481-1.372 18.914-.609 5.857-1.589 11.876-3.849 17.315a53.035 53.035 0 01-12.336 17.263c-6.106 5.8-9.721 7.457-16.489 11.471-1.162.73-3.357 2.27-4.448 2.4-1.757.132-2.785-4.4-3.408-6.288-.862-2.561-7.975-17.708-7.995-17.809a.29.29 0 01.114-.271l.043-.028a.327.327 0 01.1-.033c.036.236.068.441-.002-.008zm42.369-50.815c-.563.675-.592 2.725-1.178 4.946-1.239 4.511-6.793 17.207-8.975 21.278a48.779 48.779 0 01-4.652 7.22c-9.115 11.61-20.383 14.7-22.3 15.691a19.53 19.53 0 01-4.768 2.21c9.66 19.64 7.883 16.983 9.294 20.648a5.874 5.874 0 001.232 2.16c.235.166 2.273-1.156 2.486-1.294 7.061-4.641 14.479-7.629 23.148-18.638 9.855-12.646 9.883-22.977 11.23-42.135.173-2.536.311-4.9.379-7.373a36.158 36.158 0 00.113-3.88 1.477 1.477 0 00-.276-.757c-.253-.276-2.44.05-3.153-.013a8.165 8.165 0 00-2.58-.063z"/><path class="b" d="M117.906 154.472c.03-7.355 18.4-26.769 42.311-29.782 8.189-1.032 29.171-1.61 37.538 15.409 1.519 3.089 3.146 6.535 2.974 10.082-.214 4.379-2.529 7.836-4.641 11.5-5.674 9.837-11.994 17.238-20.4 25.173-6.859 6.477-18.026 9.9-27.293 7.795a75.209 75.209 0 01-20.083-8.242c-6.112-3.677-14.712-12.214-16.173-19.707-1.203-6.167 5.754-8.97 5.767-12.228z"/><path class="a" d="M187.592 128.284a26.659 26.659 0 0111.261 12.37 30.058 30.058 0 012.178 5.569c1.53 6.067-1.083 10.447-4.305 15.864a98.161 98.161 0 01-9.071 13.179c-3.12 3.813-10.159 11.447-14.1 14.333-6.667 4.932-16.358 7.6-24.86 5.822a67.974 67.974 0 01-12.7-4.36c-7.419-3.328-13.3-7.019-18.818-13.856a28.019 28.019 0 01-4.967-8.6c-.882-2.737-.919-5.025.786-7.621 1.695-2.64 4.564-4.554 4.608-6.512 0-3.038 2.767-7.012 4.668-9.375a60.451 60.451 0 0116.391-13.6c18.471-10.564 37.926-9.472 48.929-3.213zm-28.4-2.8c-12.618 1.813-24.754 8.44-33.182 16.695-2.792 2.747-7.73 8.39-7.8 12.3 0 3.565-7.067 6.095-5.576 12.572 1.627 6.508 8.211 13.425 13.623 17.309 5.747 4.138 17.767 9.157 24.656 10.018a31.157 31.157 0 0016.545-2.888c5.577-2.646 8.287-5.54 12.748-10.135 7.79-8.092 11.619-13.825 16.622-22.435 2.95-5.158 4.194-8.732 2.154-14.243a42 42 0 00-3.44-6.986c-7.5-11.506-22.93-14.135-36.348-12.208z"/><path class="b" d="M189.3 77.362S178.761 82.2 175.251 92.9c-1.31 3.994-5.6 7.967-9.748 7.02-2.076-.474-2.847-1.537-5.512-1.418-3.809.173-7.235 9.792-.566 10.559a14.347 14.347 0 003.019-.272 11.182 11.182 0 002.914 8.663c.64.664 5.727 3.006 6.157 3.786.754 1.368-2.3 3.322-2.651 4.408-.622 1.907 1.958 5.335 3.131 6.455 1.985 1.894 4.778 2.4 6.74.039a5.455 5.455 0 001.136-5.024c-.358-.974-2.144-3.195-.756-4.293.544-.431 1.9.054 2.523.013a19.831 19.831 0 004.81-1.146c6.276-2.094 11.243-8.385 13.288-14.468 1.586-4.721 2.882-10.794 2.6-15.748-.069-1.2.328-3.73-.407-4.715-.861-1.155-3.108-1.372-4.306-2.117a30.078 30.078 0 01-8.323-7.28z"/><path class="a" d="M189.172 77.088c.315-.114.317.06.911.8a32.071 32.071 0 007.808 6.423c1.026.579 2.857.831 3.944 1.69 1.28 1.012 1.036 2.813 1 4.832a35.979 35.979 0 01-.323 7.405 53.749 53.749 0 01-2.417 9.923 26.564 26.564 0 01-5.331 8.753 20.3 20.3 0 01-11.705 6.484 5.342 5.342 0 01-2.2.113c-.984-.152-1.145-.137-1.288-.1-.287.229-.249.593-.158.947.445 1.6 1.475 2.081 1.44 4.271a6.312 6.312 0 01-3.667 5.558c-3.578 1.305-6.789-1.969-8.483-5.4a4.491 4.491 0 01-.464-3.61c.555-1.082 2.595-2.64 2.645-3.46.019-.282-1.744-1.228-2.078-1.413-3.8-2.106-3.633-1.905-4.511-2.937a11.42 11.42 0 01-2.605-7.763 9.265 9.265 0 01-1.741.2c-3.636-.058-5.718-2.772-4.784-6.712.535-2.154 2.029-4.59 4.119-5.162a5.78 5.78 0 011.839-.078c1.973.2 2.777 1 4.39 1.411 3.77.9 7.482-2.374 9.009-5.919a32.3 32.3 0 011.442-3.526 29.492 29.492 0 0112.266-12.265c.221-.12.714-.374.942-.474.055.126.111.244 0 .009zm-26.4 31.05c.558.341.373.661.365 1.761a9.945 9.945 0 002.4 6.649c.486.554.432.53 3.068 1.949a24.42 24.42 0 013.158 1.908 1.6 1.6 0 01.619 1.266c.038 1.634-2.231 3.173-2.767 4.124-.34.625.258 1.977.582 2.608 3.134 5.793 7.126 5.617 8.728 1.973 1.359-3.248-.889-3.8-1.08-6.3a2.106 2.106 0 01.831-1.867 1.924 1.924 0 011.245-.316c1.414.068 1.515.695 6.361-.931 6.215-2.128 10.944-8.232 13.055-14.614a43.7 43.7 0 002.473-14.977c-.027-1.156.3-3.543-.265-4.335-.642-.9-2.53-1.212-3.817-1.854a31.325 31.325 0 01-8.528-7.432 28.112 28.112 0 00-13.078 14.224 14.543 14.543 0 01-1.854 4.065c-1.654 2.371-4.114 4.344-6.968 4.615-2.109.17-3.293-.612-4.783-1.144a5.216 5.216 0 00-3.153-.186c-2.709 1.171-4.849 7.681-.685 8.86 1.965.547 3.301-.384 4.096-.046z"/><path class="a" d="M165.626 117.6a13.591 13.591 0 01-3.73.885 6.568 6.568 0 01-1.62.2c-1.633-.093-3.045-.875-4.6-1.261-6.715-1.668-13.81-4.45-17.276-11.04a27.4 27.4 0 01-1.97-5.936 16.489 16.489 0 01-.68-6.568c.832-5.2 5.557-9.468 6.159-14.563 2.506-21.214 24.8-24.718 41.034-21.394 6.905 1.414 23.494 12.963 20.206 24.509-.156.545-.367 4.4-1.1 4.347-1.914-.135-11.423-5.841-12.626-9.394 0 0-10.539 4.836-14.049 15.535-1.31 3.994-5.6 7.967-9.748 7.02-2.076-.474-2.847-1.538-5.512-1.418-3.809.173-7.236 9.792-.566 10.559a14.271 14.271 0 003.018-.272 11.18 11.18 0 002.915 8.663 1.138 1.138 0 00.145.128z"/><path class="a" d="M162.955 111.189a10.452 10.452 0 00.888 3.342 9.526 9.526 0 002.035 2.906.3.3 0 01-.113.433l-.018-.034.02.038a9.8 9.8 0 01-3.068.821c-1.738.263-2.224.675-4.726-.133-.9-.293-1.157-.41-1.969-.651-.768-.217-1.959-.434-4.563-1.265-7.338-2.422-12.726-6.133-14.9-13.58-.834-2.891-1.792-6.157-1.423-9.113.766-5.521 5.483-9.476 6.14-14.963 2.019-15.965 15.23-22.972 31.258-22.9 3.767.028 9.789.536 13.282 1.953a34.206 34.206 0 016.333 3.488c7.111 4.95 13.969 12.725 11.73 21.124-.2.946-.282 3.476-.972 4.427-.411.524-.853.5-1.455.338-3.023-.872-10.6-5.78-12.36-9.051a29.642 29.642 0 00-10.743 9.8c-2.317 3.673-2.072 5.1-3.587 7.471a11.354 11.354 0 01-5.417 4.559c-4.009 1.4-5.615-.941-8.384-1.158a2.818 2.818 0 00-2.288.607c-2.864 2.316-4.1 8.809 1.324 9.072 1.183.02 2.383-.4 2.754-.241.478.468.007.455.222 2.71zm-2.147-52.16c-10.114 2.81-16.61 9.329-18.123 19.653a15.285 15.285 0 01-2.187 6.433c-1.524 2.751-3.431 5.524-4.043 8.354a14.2 14.2 0 00.432 6.451c.774 3.131 1.232 5.266 2.917 7.793 4.892 7.137 13.531 8.393 17.843 9.964a6.411 6.411 0 003.785.56 22.048 22.048 0 003.657-.728c-.046-.047-.271-.3-.462-.527a11.13 11.13 0 01-2.444-7.749 7.5 7.5 0 01-3.468.118c-5.541-1.371-3.425-9.241.175-11.013a5.288 5.288 0 013.061-.2c1.868.385 3.057 1.435 4.982 1.4 3.466-.06 6.73-3.434 7.845-6.807 2.184-6.861 7.917-12.664 13.854-15.744.486-.253 1-.57 1.419.063a5.159 5.159 0 001 1.628 32.415 32.415 0 0010.646 7.273c.126.039.1.043.122-.014.322-.993.472-3.078.6-3.645a10.6 10.6 0 00.4-2.513c.173-4.756-2.906-9.3-6.27-12.644-4.525-4.526-10.279-7.655-13.529-8.413a48.71 48.71 0 00-22.212.307z"/><path class="b" d="M192.132 142.942a35.432 35.432 0 014.641-3.175c.587-.344 1.565-.548 1.953-1.156a8.1 8.1 0 00.679-2.423c.64-2.767 1.018-5.706 4.137-6.677 3.2-1 6.893-1.5 10.072-.171 1.774.738 3.232 3.57 1.592 5.17.713-.184 1.205.909 1.539 1.425a2.92 2.92 0 01-.728 3.949c1.894 1.059 1.3 4.8-.451 5.906a11.212 11.212 0 01-6.02 1.182 13.784 13.784 0 00-2.5-.25c-.6.1-1.106.832-1.566 1.178-1.161.872-4.535 3.325-4.866 3.395-.465.097-8.482-8.353-8.482-8.353z"/><path class="a" d="M209.481 127.82c1.807.019 4.343.415 5.661 1.663a4.566 4.566 0 011.492 3.807c-.23 1.414-.529.354.213 1.385a9.747 9.747 0 01.875 1.526 3.747 3.747 0 01-.525 3.609c-.054.067-.056.035.012.119a4.447 4.447 0 01.557 3.748 4.375 4.375 0 01-3.072 3.357 13.77 13.77 0 01-5.642.608 5.728 5.728 0 00-2.016-.195 9.558 9.558 0 00-1.042.9c-.342.277-4.053 2.9-4.983 3.391a.755.755 0 01-.97-.116c-1.438-1.116-6.809-7.017-8.034-8.368-.128-.127-.193-.2-.169-.377a.3.3 0 01.1-.166 32.338 32.338 0 013.421-2.553 13.641 13.641 0 012.481-1.392 1.394 1.394 0 00.733-1.07 32.435 32.435 0 011.472-5.9c1.177-2.416 2.85-2.9 5.431-3.511a18.086 18.086 0 014.005-.465zm-8.693 22.952l-.014-.007.016.01-.013-.009.015.008-.012-.006zM207.5 146a19.248 19.248 0 003.416.25 8.938 8.938 0 004.387-1.186 3.628 3.628 0 00.79-4.094c-.342-.513-.536-.32-.778-.8a.756.756 0 01.276-.906 2.143 2.143 0 00.718-2.519 6.023 6.023 0 00-.965-1.493.925.925 0 01-.218.011.752.752 0 01-.67-.689c0-.723.62-.627.709-1.637a3.149 3.149 0 00-.927-2.258c-.974-1-3.073-1.351-4.47-1.407a17.5 17.5 0 00-5.135.637c-1.734.458-2.847.876-3.725 2.954-.679 1.607-1.173 4.675-1.5 5.492a2.145 2.145 0 01-1.2 1.269 16.465 16.465 0 00-3.9 2.141c-.552.365-1.118.757-1.713 1.214 1.347 1.347 6.475 6.458 7.97 7.638.063.049.039.049.107 0 1.167-.773 4.182-3.072 4.422-3.263.663-.528 1.012-1.378 2.406-1.354z"/><path class="b" d="M110.479 156.028c-9.426 2.365-6.04 17.123-2.55 22.845"/><path class="a" d="M110.776 155.953l-.221.371a7.053 7.053 0 00-4.189 3.467 11.557 11.557 0 00-1.22 4.716 33.272 33.272 0 002.451 12.934c.664 1.6.646 1.039.49 1.692-.462-.115-.392-.069-.461-.169-5.093-7.23-6.595-21.476 2.778-23.232z"/><path class="b" d="M112.389 185.554a24.183 24.183 0 0013.181 12.5"/><path class="a" d="M112.667 185.428a31.957 31.957 0 0013.009 12.339l.181.389-.392.176a19.258 19.258 0 01-10.437-7.148 18.027 18.027 0 01-2.918-5.5l.153-.4z"/><path class="b" d="M139.474 202.493c7.7 4.041 21.478 3.89 28.019-2.695"/><path class="a" d="M167.705 200.011c-6.243 7.176-20.359 7.587-28.372 2.752l-.129-.411.412-.13c7.472 3.282 19.519 3.1 26.4-1.646 1.635-1.142.918-.99 1.687-.994z"/><path class="b" d="M189.082 78.033a12.575 12.575 0 01-4.695 11.1"/><path class="a" d="M189.386 78.009a10.485 10.485 0 01-1.159 7.754 9.035 9.035 0 01-3.655 3.606l-.426-.051c.078-.593-.057-.255.587-1.014a16.858 16.858 0 003.359-6.325 22.332 22.332 0 00.685-3.922l.281-.328z"/><path class="b" d="M190.622 80.3c-.005-.3 1.265 1.67 1.561 2.183a7.4 7.4 0 01.554 6.107"/><path class="a" d="M190.471 80.536l.013.011-.011-.014.014.011-.006-.006.012.008-.006-.005.015.01.019.011.026.011.034.011h-.005.028l-.275-.285v-.019a.273.273 0 01.009-.072c0-.007.016-.049.018-.055.095-.172.284-.313.642-.032a7.283 7.283 0 012.878 5.343 5.544 5.544 0 01-.763 3.092c-.093.17 0 .1-.462.326-.313-.653-.126-.09-.126-1.291a9.152 9.152 0 00-.035-1.023 8.717 8.717 0 00-1.169-4.23c-.166-.321-.693-1.549-.828-1.774l.007.007zm.456-.234l-.286.276h.019a.278.278 0 00.2-.1l.039-.054.022-.05.012-.041V80.3z"/><path d="M181.825 96.993c0 1.092-.045 1.095-.053 2.166m15.774-2.821c.015.723.011.823-.016 1.672" stroke="#aea5bb" stroke-linecap="round" stroke-linejoin="round" stroke-width="2.126" fill="#fff" fill-rule="evenodd"/><path class="b" d="M189.647 95.27c.48 2.265 1.233 4.293 1.933 7.146a9.811 9.811 0 01-2.558 1.219"/><path class="a" d="M191.9 103.05a7.484 7.484 0 01-2.808.878l-.367-.221.225-.365a10.58 10.58 0 001.809-1.191 24.585 24.585 0 01-1.41-6.817l.235-.362.363.234a34.379 34.379 0 012.212 6.484c.122.589.291 1.054-.259 1.36z"/><path class="b" d="M194.943 106.99s-9.012 1.7-13.4.912c-.287 2.152-.661 4.537.644 6.471 1.43 2.118 5.137 2.51 7.258 1.451 3.32-1.658 5.821-4.824 5.498-8.834z"/><path class="a" d="M195.179 107.068a8.732 8.732 0 01-2.595 7.116 9.686 9.686 0 01-4.17 2.576 7.521 7.521 0 01-4.747-.464c-2.9-1.4-3.215-4.249-2.8-7.438.151-1.155.129-1.146.293-1.339a.574.574 0 01.583-.136c3.3.559 9.933-.138 13.16-.618h.038c.126.009.214.047.238.303zm-13.162 1.454c-.234 1.924-.447 3.914.643 5.533 1.051 1.522 3.4 1.99 5.236 1.691a6.475 6.475 0 002.747-1.224 8.707 8.707 0 004.037-6.268 8.273 8.273 0 00.045-.982c-3.603.769-9.063 1.672-12.708 1.25zm29.449 2.999a11.82 11.82 0 00-4.981-.314c-3.842.853-7 5.563-5.246 9.361.973 2.108 4.558 4.346 8.009 4.169.429-.023 1.315.036 1.575-.36 1.072-1.625.234-4.987.33-6.851.102-1.988.313-6.005.313-6.005z"/><path class="a" d="M207.752 110.58a17.067 17.067 0 013.769.641c.355.091.25.13.211 4.549 0 .235-.031 1.65-.025 1.985.072 2.016.934 5.269-.307 7.068-.508.674-1.453.636-2.353.661a10.175 10.175 0 01-6.37-2.159 6.119 6.119 0 01-2.421-3.272c-1.249-4.235 2.465-9.473 7.496-9.473zm-1.8 1.343c-2.806 1.135-5.027 4.454-4.35 7.436a4.308 4.308 0 001.61 2.467 9.01 9.01 0 004.292 2.041 8.688 8.688 0 002.742.052c.826-1.36.2-4.554.349-6.419.552-6.2.6-5.7.482-5.722-1.854-.272-3.331-.544-5.123.145zm4.265 12.044z"/><path class="a" d="M205.67 123.823a13.861 13.861 0 00-.787 4.24 16.007 16.007 0 00-.129 3.758c.585 3.046 6 3.02 7.73 1.12.857-.941.411-4 .367-5.221-.022-.6.238-2.9-.233-3.256-.544-.412-1.535-.183-2.152-.164-1.166.034-4.796-.477-4.796-.477z"/><path class="a" d="M205.711 123.525a40.847 40.847 0 004.956.2 4.76 4.76 0 011.736-.048 1.315 1.315 0 011.085 1.138 8.137 8.137 0 01.114 1.733 11.923 11.923 0 00.07 2.321c.148 1.88.288 3.815-.909 4.858-2.066 1.8-6.793 1.816-8.286-.707a5.4 5.4 0 01-.332-3.49 20.627 20.627 0 011.242-5.818c.033.004.041-.205.324-.187zm-.282 3.922c-.025.1-.123 3.074-.121 3.175a2.466 2.466 0 00.765 2.127 5.254 5.254 0 005.658-.133c.933-.777.311-3.356.437-5.922a8.131 8.131 0 00-.017-1.765 7.311 7.311 0 00-1.942-.088c-1.111-.068-3.117-.44-4.331-.671a12.756 12.756 0 00-.449 3.277zm6.78-2.478l-.011-.01.025.021-.01-.01.022.018-.04-.033zm-.013-.011z"/><path class="a" d="M254.856 133.506c-4.36-.6-17.314-3.358-23.3-4.523-5.313-1.034-19.625-4.415-20-4.991-.615-.936-.27-5.985-.143-11.815 2.858-1.452 40.73-22.486 40.955-22.436 13.063 2.902 10.873 41.925 2.488 43.765z"/><path class="a" d="M252.456 89.01c4.66 1.065 7.124 5.954 8.342 10.56 2.564 9.446 1.685 27.726-3.911 33.137a3.645 3.645 0 01-2.073 1.1v-.009c-.033.186-24.534-4.224-36.854-7.213-6.663-1.63-6.843-1.841-7.1-2.389-.607-1.351-.34-6.246-.252-8.656.075-3.711.038-3.439.151-3.7.19-.3.164-.222 1.576-.987 11.127-6.053 39.331-21.868 40.121-21.843zm-40.323 23.618l-.064 2.954h-.008c-.066 1.578-.331 6.526.045 7.924 4.606 1.928 38.238 9.021 42.745 9.691a4.865 4.865 0 002.591-2.231c3.414-5.3 4.021-16.41 3.427-23.244-.569-6.107-2.538-15.639-8.429-17.208-1.64.818-34.997 19.304-40.307 22.114zm57.754-27.382a36.019 36.019 0 014.174 2c.606-.846 2.164-3.518 2.821-4.158a.977.977 0 01.773-.3 13.651 13.651 0 014.421 1.418c.545-.768 1.1-1.668 1.775-2.6 1.7-2.342 2.054-2.247 3.044-1.764a20.28 20.28 0 013.679 2.4c.1.1.062.016.08.492-.791.026.093.146-2.027-.932a23.023 23.023 0 00-2.48-1.1 3.708 3.708 0 00-.377.439c-1.842 2.491-2.549 4.932-3.706 4.655a26.584 26.584 0 00-4.164-1.481c-.108-.011-.068-.034-.182.113-1 1.327-2.4 3.835-3.03 4.268-.757.44-1.424-.355-4.779-2.168-.521.7-2.341 3.6-2.792 4.41l-.408.141c-.159-.456-.159-.366-.118-.466.271-.629.955-2.037 1.309-2.752 1.2-2.4 1.422-2.683 1.987-2.615zm4.512 2.148h.013-.016zm0 0zm-4.319-1.074h.006zm0 0l.019-.017-.01.008.019-.017-.008.006.011-.012a.3.3 0 00-.033.029zm11.777-1.834zm0-.006zm4.162-3.806zm-.029-.005h-.012.021-.013.033c-.024 0-.013 0-.044-.006zm5.149 26.398c.812.256 3.531 3.461 3.877 4.315l-.142.4c-.751-.27.035.127-1.448-1.361a27.643 27.643 0 00-2.345-2.063c-.2-.148-.156-.131-.259-.087a8.068 8.068 0 00-1.056.634c-5.027 3.476-3.412 3.485-6.54.634a7.882 7.882 0 00-1.414-1.067c-.708.39-2.234 1.533-3.593 2.43-1.272.81-1.4.657-2.464-.649-.844-1.048-1.538-2-2.106-2.664-.774.478-3.381 2.379-4.172 3.008-.1.077 0 .052-.493.028.023-.49-.016-.392.081-.492a46.357 46.357 0 014.28-3.717.7.7 0 01.721-.042c.7.383 2.639 2.9 3.17 3.429a42.1 42.1 0 014.245-2.84.992.992 0 01.794.058 13.919 13.919 0 013.53 2.94c1.272-.8 4.26-3.144 5.334-2.894zm-5.642 3.071zm.007 0zm-8-.059l-.013-.011zm-.014-.012zm13.3-1.9h-.011l.02.009h-.012l.025.01h-.01l.015.005-.042-.02zm-16.9-.708h.006zm0 0l.024-.008h-.012l.023-.009.015-.007a.356.356 0 00-.056.021zm-2.116 20.102a.805.805 0 01.6.376c.557.721 1.924 3.5 2.137 3.837 1.2-.455 3.464-1.5 4.458-1.769.559-.144.81-.075 1.373.412a16.782 16.782 0 012.49 3.41c1.144-.4 4.185-1.809 5.485-1.729a.776.776 0 01.623.309 18.158 18.158 0 012.542 4.749c.026.121.052.042-.21.456-.62-.4-.105-.029-1-1.469a25.215 25.215 0 00-2.083-2.868 12.808 12.808 0 00-2.274.828c-2.875 1.236-3.51 1.748-4.131.855a21.927 21.927 0 00-2.38-3.346c-.158-.145-.119-.129-.219-.1-1.089.345-3.762 1.552-4.612 1.761a.882.882 0 01-.874-.156c-.522-.514-1.508-2.988-2.2-4.3-.911.312-4.05 1.671-4.806 2.043l-.415-.116.115-.416c.579-.363 4.663-2.774 5.381-2.767zm10.716 6.368zm.008 0zm5.586-.752h-.01l.018.013-.011-.008.022.016-.009-.006.013.008-.036-.028zM274.71 132.1l-.011-.014zm-.011-.015zm-2.941-3.343h.007zm0 0h.026-.013.025-.01.016a.236.236 0 00-.042-.002z"/><path class="b" d="M126.273 158.1c1.244 8.092-.044 21.066 25.752 30.177 29.823 10.532 52.656-34.472 52.17-36.078-.51-1.682-2.325-3.11-3.318-4.5a62.316 62.316 0 00-4.8-5.737c-.49-.538-1.326-1.763-1.981-2.023-.574-.227-1.44.412-1.929.6-1.774.693-3.589 1.2-5.357 1.917-3.44 1.4-7 2.287-10.51 3.454-2.669.887-6.015 2.054-8.9 1.341-.6-.148-3.9-8.593-5.708-10.849"/><path class="a" d="M196.508 141.4c.6.682 2.24 2.37 4.03 4.64.891 1.151.991 1.361 1.464 1.906.759.886 3.1 3.175 2.922 4.523a20.5 20.5 0 01-1.638 3.925 88.557 88.557 0 01-8.349 13.076c-10.232 13.259-24.6 24.511-40.83 20.172a62.6 62.6 0 01-10.363-4.15c-4.881-2.472-9.526-5.723-12.716-10.112-3.946-5.517-4.246-10.3-4.931-16.27-.142-1.185-.2-.855.131-1.312.408.3.336.171.4.566.733 4.536.709 10.47 5.2 16.429 4.75 6.295 13.393 10.541 20.858 12.986a26.29 26.29 0 0014.79.588c13.647-3.463 25.317-16.875 32.445-28.953a49.235 49.235 0 003.431-6.747 2.26 2.26 0 00.108-.362c-.5-1.436-1.969-2.529-3.365-4.465-1.069-1.466-2.092-2.673-3.279-4.025-2.762-3.115-2.352-2.843-2.963-3.247a3.332 3.332 0 00-1.059.419c-1.032.516-3.729 1.249-5.737 2.048-3.08 1.218-5.787 1.906-9.267 2.963-2.624.8-5.124 1.779-7.833 1.918a8.641 8.641 0 01-2.794-.3c-.736-.47-2.445-5.064-4.389-8.838-1.456-2.782-1.345-1.831-1.256-2.608l.424.05c1.756 2.143 4.738 9.441 5.657 10.633a9.263 9.263 0 003.481.007c1.571-.273 2.343-.481 11.814-3.608 2.886-.972 3.326-1.248 4.709-1.769 1.292-.479 2.029-.708 3.189-1.125a10.716 10.716 0 002.047-.886c1.727-.802 2.361.428 3.669 1.928zm-28.882 5.491l-.007-.006zm0 0zm-.006 0zm26.237-6.314h-.007zm0 0h-.007zm0 0h-.007zm0 0zm0 0zm-.01 0h.008-.008zm0 0zm0 0zm-46.1-80.108c1.1-.571 13.845-9.185 20.857-7.992 1.328.226 2.708.109 4.043.314a6.436 6.436 0 002.821.141c2.528-.9 1.751-6.241.792-8-2.92-5.351-8.235-7.383-14.091-7.674a18.074 18.074 0 00-7.12.679c-3.668 1.228-6.582 4.04-8.854 7.038-1.912 2.521-3.375 5.636-2.994 8.889a15.9 15.9 0 001.154 3.574c.397 1.079 1.699 3.91 3.392 3.031z"/><path class="a" d="M160.223 36.445c6.931.046 13.06 1.821 16.51 7.8 1.332 2.36 1.855 7.1-.168 8.866-1.2.995-2.491.628-4.026.372-.976-.156-2.053-.127-3.244-.236a12.151 12.151 0 00-3.026-.2c-6.962.53-16.74 6.853-18.536 7.766v-.008c-1.789.747-3.117-1.641-3.839-3.447-.8-1.932-1.324-2.908-1.239-5.117.2-4.194 3.05-8.272 6.1-11.181a15.3 15.3 0 0111.468-4.615zm-12.475 24.36l-.015.006v.008c.198-.107.143-.074.015-.014zm12.141-22.863a13.487 13.487 0 00-7.308 1.943 22.188 22.188 0 00-8.222 9.454c-1.433 3.707-.481 5.692.429 8.117.453 1.261 1.517 3.325 2.818 2.747a85.992 85.992 0 0110.984-6.189c7.334-3.212 9.609-2.148 11.558-2.076a23.609 23.609 0 012.54.151c1.407.2 2.345.532 3.038-.161 1.015-1.128.752-3.75.386-5.229a6.086 6.086 0 00-.912-2.1c-3.35-5.317-9.081-6.657-15.311-6.657z"/><ellipse class="d" cx="114.743" cy="219.774" rx="8.707" ry="8.36"/><path class="a" d="M112.326 212.533a7.471 7.471 0 00-2.348 13.322c5.121 3.613 12.307.405 12.7-5.643.285-5.487-5.223-9.272-10.352-7.679zm5.333-1.436a9.016 9.016 0 015.373 13.083 9.64 9.64 0 01-16.84-.492c-3.535-7.346 3.629-14.996 11.467-12.588z"/><path class="b" d="M114.81 224.076s6.456-2.3 4.777-6.788a2.527 2.527 0 00-4.849.024 2.518 2.518 0 00-4.835 0c-1.678 4.488 4.663 6.656 4.907 6.764z"/><path class="a" d="M117.317 214.715c2.36.069 3.561 2.55 3.262 4.669a5.254 5.254 0 01-1.508 2.871 11.466 11.466 0 01-4 2.534v-.011.011c-.346.1-.465.024-.822-.118-2.462-.987-5.043-2.76-5.358-5.383a4.842 4.842 0 01.937-3.386 3.265 3.265 0 014.911-.121 3.575 3.575 0 012.578-1.066zm-1.788 2.576c-.11.3-.148.722-.788.78-.665-.056-.689-.508-.8-.8a1.909 1.909 0 00-1.7-1.021c-1.064.012-1.621.966-1.808 2.009-.393 2.429 2.156 4.1 4.382 5 2.2-.919 4.689-2.716 4.238-5.11-.57-2.772-3.053-2.049-3.524-.858zm117.895-57.016c12 .156 21.034 10.76 18.281 22.247-3.366 13.387-20.407 17.736-30.918 8.961-12.755-11.013-4.677-31.24 12.637-31.208zm-5.233 3.007a16.806 16.806 0 00-6.062 3.3c-10.807 9.238-5.1 26.759 9.95 28.423v.006a17.206 17.206 0 0016.532-9.56c5.894-12.623-6.293-26.297-20.42-22.169z"/><path class="a" d="M240.731 182.2l-.065.64c-2.611 3.166-6.875 3.784-10.726 2.638a10.84 10.84 0 01-3.859-2.238l-.021-.023-.1-.641c1.257-.185-.37-.149 3.347.641a14.458 14.458 0 006.519.276 12.061 12.061 0 004.261-1.35zm-12.082-8.046c.646 1.332.289.442.4 2.637.023.3.07.043-.221 1.049l-.757.422h-.008l-.834-.242-.422-.758c-.056-.165-.047-2.2-.05-2.2l.29-.817.782-.379h.008zm11.184-.222c.646 1.332.289.441.4 2.637.023.3.071.043-.221 1.049l-.757.422h-.008l-.834-.242-.422-.758c-.074-.219-.024-1.626-.049-2.2l.291-.817.781-.379h.008zm-124.409-83.62c8.607.111 14.652 7.827 12.727 15.482-2.383 9.4-14.25 12.322-21.529 6.242-8.84-7.628-3.287-21.756 8.802-21.724zm-3.661 2.03a11.774 11.774 0 00-4.242 2.313c-7.543 6.449-3.6 18.7 6.964 19.874a12.014 12.014 0 0011.563-6.672c4.227-9.157-4.798-18.405-14.285-15.515z"/><path class="a" d="M120.144 105.042c2.812.181 1.089 5.926-3.987 6.03a8.725 8.725 0 01-3.625-.356c-3.189-1.175-3.953-4.2-2.63-5.043.3-.175.113-.189 5.311-.448.323-.016 4.613-.203 4.931-.183zm-9.476 1.892a2.7 2.7 0 00.608 1.509 5.644 5.644 0 004.346 2.02 4.839 4.839 0 004.4-3.3 1.375 1.375 0 00.029-.661c-4.176.242-7.502.33-9.383.432zm.014-.08zm0 0v-.006zm0-.009v-.014.02l.008-.01-.007.009.009-.015-.007.011.009-.015-.007.012.007-.014-.007.013.007-.014zm9.354-.369zm0 0h-.005zm0 0l-.01-.009zm-.005-.006l-.009-.014.009.014-.009-.013.01.014-.01-.012.012.015-.01-.011.012.013v-.014zm-6.999-6.208c.706.4 1.35.643 1.059 1.413-.155.271-.293.356-1.177.964a10.62 10.62 0 01-2.15 1.022l-.421-.077.082-.421a11.615 11.615 0 011.609-1.706c.188-.094-.086.018-1.314-1.15-.572-.535-.427-.305-.613-.836l.408-.143a8.459 8.459 0 012.517.934zm7.44-1.235l-.143.408c-.319.279-.717.672-1.1.992-.709.579-.831.512-.681.587a11.939 11.939 0 011.61 1.706l.082.421-.422.077a16.806 16.806 0 01-.854-.335 6.548 6.548 0 01-1.294-.685c-.142-.142-.953-.57-1.179-.966-.291-.771.359-1.013 1.06-1.413a8.17 8.17 0 012.516-.934zm-93.062 76.71c8.588.023 15.23 7.905 13.185 16.036-3.073 12.127-20.516 13.127-25.667 2.037-3.947-8.736 2.893-18.191 12.482-18.073zm-3.809 2.05a11.946 11.946 0 00-7.443 6.4c-3.406 7.625 2.038 15.851 10.276 16.671 7.179.385 13.2-5.087 13.127-11.9-.094-8.074-8.27-13.514-15.961-11.171z"/><path class="a" d="M32.307 191.025a1.46 1.46 0 011.375 1.533c.085 2.268-2.662 4.885-6.023 4.686-6 .53-8.111-5.25-5.592-5.714.766-.137 9.761-.53 10.24-.505zm-9.859 1.91a1.588 1.588 0 00.094.611c.466 1.441 2.255 2.975 5.073 3.09 0 .124 3.518-.351 4.513-3.138a1.885 1.885 0 00.117-.977v-.008l-.01-.026c-.103 0-9.683.441-9.787.448zm.015-.073zm0 0l.006-.007zm0-.01l-.005.011.01-.013v.006l.01-.015-.007.011.008-.015-.008.014.008-.015v.014l.007-.014zm9.754-.381zm0 0zm0 0l-.007-.006zm0 0l-.011-.008zm0-.005l-.006-.006-.005-.007.011.015-.011-.013.013.015-.012-.012.013.013v-.007l-.008-.01.01.015-.005-.009-.006-.007zm-6.507-5.944a.757.757 0 01.333.853c-.109.3-.126.3-.931.881a8.541 8.541 0 01-2.164 1.151c-.477.188-.3.164-.8.071.1-.51.015-.339.343-.721a10.29 10.29 0 011.424-1.46l.091-.073a13.461 13.461 0 01-1.856-1.51c-.137-.122-.072 0-.243-.5l.407-.142a9.983 9.983 0 013.396 1.45zm6.928-1.763l-.142.407-.01.01a14.668 14.668 0 01-1.947 1.588 11.656 11.656 0 011.719 1.77c.09.1.045.01.139.484-.485.089-.395.088-.5.047a10.479 10.479 0 01-2.138-1.043c-.07-.034-.879-.614-1.076-.79a.755.755 0 01-.106-.909c.135-.194.146-.207.677-.509a9.078 9.078 0 012.839-1.164c.181-.045.067-.058.545.109z"/><ellipse class="d" cx="27.849" cy="101.949" rx="22.073" ry="21.191"/><path class="a" d="M21.381 82.477c-16.217 4.93-20.364 25.661-6.292 35.834 13.542 9.581 32.829 1.351 34.038-15.181.712-14.788-13.85-24.872-27.746-20.653zm13.512-1.412c17.729 5.7 21.405 27.9 6.49 38.559-11.349 8.061-27.83 4.41-34.168-8.27-8.501-17.454 8.706-36.162 27.678-30.289z"/><path class="b" d="M28.017 112.854s16.366-5.839 12.111-17.208c-2.847-7.609-11.467-4.474-12.292.06-.825-4.534-9.41-7.609-12.258 0-4.253 11.369 11.822 16.875 12.439 17.148z"/><path class="a" d="M28.055 113.612c-.232-.006-.192 0-.725-.211-5.576-2.153-11.9-6.222-13.05-12.1a11.142 11.142 0 011.464-7.662c3.055-4.887 9.4-3.948 12.092.052a7.3 7.3 0 012.882-2.55c4.752-2.394 9.739.209 10.757 6.643.673 4.671-1.729 8.419-5.416 11.386a28.447 28.447 0 01-8.004 4.442zm.861-18.746a4.5 4.5 0 00-.369 1.107.758.758 0 01-.842.481c-.838-.222-.381-.758-1.183-1.995-1.873-2.89-7.535-4.417-10 .957-3.428 7.867 3.549 13.473 11.5 16.624.1-.1 15.688-5.746 11.268-16.451-2.374-5.68-8.619-4.125-10.374-.723z"/><ellipse class="d" cx="222.474" cy="36.017" rx="10.573" ry="10.151"/><path class="a" d="M219.492 27.068a9.239 9.239 0 00-2.9 16.466c6.346 4.505 15.3.375 15.679-6.974.406-6.413-6.079-11.52-12.779-9.492zm6.475-1.432a10.79 10.79 0 016.433 15.651 11.54 11.54 0 01-20.163-.589c-4.248-8.832 4.426-17.947 13.73-15.062z"/><path class="b" d="M222.555 41.241s7.84-2.8 5.8-8.243a3.069 3.069 0 00-5.889.029 3.057 3.057 0 00-5.871 0c-2.036 5.446 5.664 8.083 5.96 8.214z"/><path class="a" d="M222.6 42c-.192-.005-.176.005-.663-.187-2.241-.907-4.649-2.366-5.8-4.492a5.369 5.369 0 011.206-6.59 3.9 3.9 0 015.125.677 4.188 4.188 0 013.055-1.373c1.971.025 3.195 1.37 3.729 3.267.887 3.324-1.28 5.877-4.257 7.611A11.669 11.669 0 01222.6 42zm2.9-10.446a2.573 2.573 0 00-2.128 1.185c-.259.475-.069.629-.528.948a.759.759 0 01-.954-.167c-.242-.34-.1-.3-.278-.685a2.453 2.453 0 00-3.077-1.059 3.639 3.639 0 00-1.481 3.591c.39 2.447 3.2 4.133 5.5 5.059 2.235-.916 4.968-2.723 5.342-5.125a4.223 4.223 0 00-.6-2.747 2.043 2.043 0 00-1.796-1z"/><ellipse class="d" cx="214.653" cy="224.444" rx="10.573" ry="10.151"/><path class="a" d="M211.67 215.5a9.239 9.239 0 00-2.9 16.466c6.329 4.493 15.3.4 15.678-6.974.407-6.418-6.078-11.525-12.778-9.492zm6.475-1.432a10.79 10.79 0 016.432 15.651 11.541 11.541 0 01-20.163-.589c-4.247-8.837 4.428-17.952 13.731-15.067z"/><path class="b" d="M214.734 229.668s7.839-2.8 5.8-8.243a3.068 3.068 0 00-5.888.029 3.058 3.058 0 00-5.872 0c-2.036 5.446 5.663 8.083 5.96 8.214z"/><path class="a" d="M214.774 230.426c-.192 0-.176.006-.662-.186-2.241-.907-4.649-2.366-5.8-4.492a5.368 5.368 0 011.2-6.59 3.9 3.9 0 015.125.677 4.184 4.184 0 013.055-1.373c1.972.025 3.2 1.37 3.73 3.266.887 3.325-1.281 5.878-4.258 7.612a11.564 11.564 0 01-2.39 1.086zm2.906-10.445a2.572 2.572 0 00-2.128 1.185c-.26.474-.07.629-.528.948a.761.761 0 01-.955-.167c-.241-.34-.1-.3-.277-.686a2.454 2.454 0 00-3.077-1.058 3.637 3.637 0 00-1.482 3.591c.39 2.447 3.2 4.133 5.5 5.059 2.235-.916 4.967-2.723 5.342-5.125a4.217 4.217 0 00-.606-2.747 2.043 2.043 0 00-1.789-1z"/><path class="b" d="M252.666 92.184c-.368.461-1.619 5.134-1.368 13.04.337 10.576 2.354 25.072 3.065 25.1 7.345.341 7.377-37.824-1.697-38.14z"/><path class="a" d="M252.835 91.887c2.809.142 4.564 3.706 5.453 6.374 2.224 6.676 2.578 15.959 1.6 22.894-.5 3.46-1.776 9.7-5.273 9.926a.951.951 0 01-.9-.3c-1.192-1.47-4-23.07-2.561-33.568.149-1.126.709-4.493 1.262-5.209.138-.146.243-.126.419-.117zm-.713 4.185a60.021 60.021 0 00-.13 11.147c.327 5.022 1.713 19.039 2.793 22.314 5.581-1.405 6.148-35.857-1.892-37.024l-.049-.006a19.167 19.167 0 00-.722 3.569z"/><path class="b" d="M246.607 100.993l.529.688v.007l-.118.86c-.88.678-.487.468-1.6.765-6.206 1.662-12.84 4.619-20.965 8.095a35.512 35.512 0 00-4.133 2.031c-2.325 1.389-1.291 1.227-2.386 1.136l.057-.639a17.16 17.16 0 011.764-1.378c2.91-1.984 12.224-6.373 14.54-7.425a75.843 75.843 0 0111.446-4.258z"/></svg>